<svg viewBox="0 0 1230 269" width="1230" height="269" xmlns="http://www.w3.org/2000/svg">
  <defs>
    <clipPath id="lines">
      <path d="M1 152.998l1069-152-159 218-422-204-271 188 469-127 543 95-735 97-337-177 670-12-187 158-100-131 147-29" fill="#fff"/>
    </clipPath>
  </defs>
  <path d="M1 152.998v0l1069-152v0l-159 218v0l-422-204v0l-271 188v0l469-127v0l543 95v0l-735 97v0l-337-177v0l670-12v0l-187 158v0l-100-131v0l147-29v0" fill="none" stroke="#e31e24" stroke-miterlimit="20" stroke-width="2" clip-path="url(#lines)" opacity=".11"/>
  <path d="M688.058 75.833l-.142 1.001 10.026 1.676.141-1.003z" fill="#e31e24"/>
  <path d="M687.856 75.519l.288.958-10 2.999-.288-.957zM495.243 267.562l-.486.873-18-10 .486-.874z" fill="#e31e24"/>
  <path d="M514.297 264.523l.125.992-20.43 2.574-.125-.992zM641.387 235.682l-.774.633-9-11 .774-.634zM640.502 236.542l.668.781 11.06-9.581-.668-.782zM158.76 91.438l.48-.878 11 6-.48.877z" fill="#e31e24"/>
  <path d="M159.13 91.405l-.01-1 12.53-.127.01 1zM910.224 217.551l-.448.895-14-7.001.448-.894zM910.909 218.81l-.81-.587 9.196-12.667.81.587zM215.044 204.949l-.24-.97 9.705-2.41.24.97z" fill="#e31e24"/>
  <path d="M214.3 205.4l-.6-.802 8-6 .6.8zM499.932 20.43l.47-.917-11.334-5.6-.47.916z" fill="#e31e24"/>
  <path d="M479.287 21.408l-.574-.819 10-7 .574.819zM1068.942 1.502l.116.993-17 2-.117-.993z" fill="#e31e24"/>
  <path d="M1068.253.952l.816.58-9.892 13.968-.816-.579zM1228.09 170.506l-.18.983-22-3.999.18-.984z" fill="#e31e24"/>
  <path d="M1227.951 169.691l.162.987-22.064 3.628-.163-.988zM828 78.999v1h-13v-1z" fill="#e31e24"/>
  <path d="M827.23 78.942l.637.77-10.029 8.273-.636-.771zM541.6 106.298l.8-.6 6 8-.8.6z" fill="#e31e24"/>
  <path d="M542.522 106.883l-.188-.98 9.82-1.887.189.981z" fill="#e31e24"/>
  <path d="M.884 153.484l.232-.972 214 51-.232.973z" fill="#e31e24" opacity=".11"/>
  <path d="M1.83 154.81l-.185-.984 23.67-4.441.185.983z" fill="#e31e24"/>
  <path d="M1.822 155.07l.197-.98 23.612 4.743-.197.98z" fill="#e31e24"/>
</svg>