<svg xmlns="http://www.w3.org/2000/svg" viewBox="0 0 1000 1000">
  <path d="M143.31 13.47c-9.31 1.96-27.68 8.57-40.42 14.95-18.87 9.31-26.7 14.94-43.12 31.11-16.17 16.42-21.8 24.26-31.11 43.12-19.85 40.43-19.12 30.63-18.38 295.22l.73 232.74 6.62 19.6c15.68 46.06 46.79 81.58 89.18 101.67 33.32 15.68 30.87 15.43 202.61 16.42l156.31.98L608.3 879.52l142.58 110.25.73-110 .49-110 48.51-1.47c54.88-1.47 66.88-3.92 98.49-19.36 16.66-8.08 24.99-14.21 41.65-31.11 24.01-24.25 36.5-45.32 44.34-75.46 4.66-18.62 4.9-25.97 4.9-254.3 0-259.94.74-246.71-15.92-281.74-20.33-42.87-54.63-73.01-100.69-88.93l-19.6-6.62-346.66-.49c-294.72-.24-349.11.24-363.81 3.18zm703.37 37.98c46.79 8.33 87.95 47.04 100.45 94.08 2.7 9.8 3.43 58.8 3.43 244.01 0 204.81-.49 233.23-3.92 244.99-12.74 42.87-44.83 75.21-89.18 89.18-11.02 3.67-25.72 4.65-78.89 5.63l-65.66.98v180.56l-116.86-90.4-116.86-90.4-161.94-.73c-159.24-.73-161.94-.98-177.86-6.37-42.87-14.46-76.44-50.71-86.73-93.83-5.39-23.27-5.39-456.17 0-479.45 11.02-46.79 49.49-85.75 95.79-97.02 12-2.94 69.09-3.43 349.11-3.67 228.83-.26 339.07.48 349.12 2.44z"/>
  <path d="M224.16 265.57c-3.92 3.67-6.13 8.82-6.13 13.47s2.21 9.8 6.13 13.47l5.88 6.13h264.35c263.86 0 264.35 0 270.96-5.15 4.9-3.92 6.37-7.1 6.37-14.45s-1.47-10.53-6.37-14.46c-6.62-5.14-7.11-5.14-270.96-5.14H230.03l-5.87 6.13zM224.16 461.56c-3.92 3.67-6.13 8.82-6.13 13.47s2.21 9.8 6.13 13.47l5.88 6.12h264.35c263.86 0 264.35 0 270.96-5.15 4.9-3.92 6.37-7.1 6.37-14.45s-1.47-10.53-6.37-14.46c-6.62-5.14-7.11-5.14-270.96-5.14H230.03l-5.87 6.14z"/>
</svg>