<svg xmlns="http://www.w3.org/2000/svg" viewBox="0 0 1000 1000"><path d="M934.4 989.9c-19.6 0-28-18.4-28.7-30C893.3 745.4 715.1 577.3 500 577.3S106.7 745.4 94.3 960c-.7 11.6-9.1 30-28.7 30-6.9 0-12.6-2.3-16.9-6.9-7.8-8.2-7.7-20.4-7.5-23.9 10.3-194.6 141.1-360.1 327.1-415.8-92.7-47.9-151.9-144.7-151.9-249.8C216.4 137.3 343.6 10 500 10c156.4 0 283.6 127.3 283.6 283.6 0 104.8-59.2 201.9-151.9 250.8 186 54.6 316.9 219.8 327.2 414.8.2 3.5.2 15.7-7.5 23.9-4.3 4.6-10.1 6.8-17 6.8zM500 63.1c-127.1 0-230.5 103.4-230.5 230.5S372.9 524.2 500 524.2s230.5-103.4 230.5-230.5S627.1 63.1 500 63.1z"/></svg>